HIERARCHY
ROOT Hips
{
  OFFSET -13.1373 81.9271 308.759
  CHANNELS 6 Xposition Yposition Zposition Zrotation Xrotation Yrotation
  JOINT LeftUpLeg
  {
    OFFSET 8.91 -6.27 -2.145
    CHANNELS 6 Xposition Yposition Zposition Zrotation Xrotation Yrotation
    JOINT LeftUpLegRoll
    {
      OFFSET 0 -22.7323 0
      CHANNELS 6 Xposition Yposition Zposition Zrotation Xrotation Yrotation
      JOINT LeftLeg
      {
        OFFSET 0 -22.1464 0
        CHANNELS 6 Xposition Yposition Zposition Zrotation Xrotation Yrotation
        JOINT LeftLegRoll
        {
          OFFSET 0 -22.0919 0
          CHANNELS 6 Xposition Yposition Zposition Zrotation Xrotation Yrotation
          JOINT LeftFoot
          {
            OFFSET 0 -18.609 0
            CHANNELS 6 Xposition Yposition Zposition Zrotation Xrotation Yrotation
            JOINT LeftToeBase
            {
              OFFSET 0 -6.26232 12.9547
              CHANNELS 6 Xposition Yposition Zposition Zrotation Xrotation Yrotation
              End Site
              {
                OFFSET 0 0 5.96686
              }
            }
          }
        }
      }
    }
  }
  JOINT RightUpLeg
  {
    OFFSET -8.91 -6.27 -2.145
    CHANNELS 6 Xposition Yposition Zposition Zrotation Xrotation Yrotation
    JOINT RightUpLegRoll
    {
      OFFSET 0 -22.7323 0
      CHANNELS 6 Xposition Yposition Zposition Zrotation Xrotation Yrotation
      JOINT RightLeg
      {
        OFFSET 0 -22.1464 0
        CHANNELS 6 Xposition Yposition Zposition Zrotation Xrotation Yrotation
        JOINT RightLegRoll
        {
          OFFSET 0 -22.0919 0
          CHANNELS 6 Xposition Yposition Zposition Zrotation Xrotation Yrotation
          JOINT RightFoot
          {
            OFFSET 0 -18.609 0
            CHANNELS 6 Xposition Yposition Zposition Zrotation Xrotation Yrotation
            JOINT RightToeBase
            {
              OFFSET 0 -6.26232 12.9547
              CHANNELS 6 Xposition Yposition Zposition Zrotation Xrotation Yrotation
              End Site
              {
                OFFSET 0 0.000942417 5.96686
              }
            }
          }
        }
      }
    }
  }
  JOINT Spine
  {
    OFFSET 0 7.43174 -2.06162
    CHANNELS 6 Xposition Yposition Zposition Zrotation Xrotation Yrotation
    JOINT Spine1
    {
      OFFSET -1.68772e-005 12.1899 -1.41951
      CHANNELS 6 Xposition Yposition Zposition Zrotation Xrotation Yrotation
      JOINT Spine2
      {
        OFFSET 0 11.8846 -1.0903
        CHANNELS 6 Xposition Yposition Zposition Zrotation Xrotation Yrotation
        JOINT Spine3
        {
          OFFSET 1.84329e-005 10.5137 1.04001
          CHANNELS 6 Xposition Yposition Zposition Zrotation Xrotation Yrotation
          JOINT Neck
          {
            OFFSET 0 11.5156 1.94702
            CHANNELS 6 Xposition Yposition Zposition Zrotation Xrotation Yrotation
            JOINT Head
            {
              OFFSET -1.26215e-005 11.0733 1.65432
              CHANNELS 6 Xposition Yposition Zposition Zrotation Xrotation Yrotation
              End Site
              {
                OFFSET 0 17.7047 0
              }
            }
          }
          JOINT LeftShoulder
          {
            OFFSET 7 4.56855 2.0674
            CHANNELS 6 Xposition Yposition Zposition Zrotation Xrotation Yrotation
            JOINT LeftArm
            {
              OFFSET 10.7073 0 0
              CHANNELS 6 Xposition Yposition Zposition Zrotation Xrotation Yrotation
              JOINT LeftArmRoll
              {
                OFFSET 15.2612 0 0
                CHANNELS 6 Xposition Yposition Zposition Zrotation Xrotation Yrotation
                JOINT LeftForeArm
                {
                  OFFSET 12.0443 0 0
                  CHANNELS 6 Xposition Yposition Zposition Zrotation Xrotation Yrotation
                  JOINT LeftForeArmRoll
                  {
                    OFFSET 16.3277 0 0
                    CHANNELS 6 Xposition Yposition Zposition Zrotation Xrotation Yrotation
                    JOINT LeftHand
                    {
                      OFFSET 10.3694 0 0
                      CHANNELS 6 Xposition Yposition Zposition Zrotation Xrotation Yrotation
                      JOINT LeftHandThumb1
                      {
                        OFFSET 4.34876 -0.798502 4.28243
                        CHANNELS 6 Xposition Yposition Zposition Zrotation Xrotation Yrotation
                        JOINT LeftHandThumb2
                        {
                          OFFSET 2.51259 -0.536099 0.707454
                          CHANNELS 6 Xposition Yposition Zposition Zrotation Xrotation Yrotation
                          JOINT LeftHandThumb3
                          {
                            OFFSET 2.54314 0 0
                            CHANNELS 6 Xposition Yposition Zposition Zrotation Xrotation Yrotation
                            JOINT LeftHandThumb4
                            {
                              OFFSET 2.66675 0 0
                              CHANNELS 6 Xposition Yposition Zposition Zrotation Xrotation Yrotation
                              End Site
                              {
                                OFFSET 0 0 0
                              }
                            }
                          }
                        }
                      }
                      JOINT LeftHandIndex1
                      {
                        OFFSET 8.82198 0.199729 3.47167
                        CHANNELS 6 Xposition Yposition Zposition Zrotation Xrotation Yrotation
                        JOINT LeftHandIndex2
                        {
                          OFFSET 4.22532 0 -0.000262656
                          CHANNELS 6 Xposition Yposition Zposition Zrotation Xrotation Yrotation
                          JOINT LeftHandIndex3
                          {
                            OFFSET 2.65394 0 -0.00016516
                            CHANNELS 6 Xposition Yposition Zposition Zrotation Xrotation Yrotation
                            JOINT LeftHandIndex4
                            {
                              OFFSET 1.95822 0 -0.00012217
                              CHANNELS 6 Xposition Yposition Zposition Zrotation Xrotation Yrotation
                              End Site
                              {
                                OFFSET 0 0 0
                              }
                            }
                          }
                        }
                      }
                      JOINT LeftHandMiddle1
                      {
                        OFFSET 8.80988 0.50089 1.30468
                        CHANNELS 6 Xposition Yposition Zposition Zrotation Xrotation Yrotation
                        JOINT LeftHandMiddle2
                        {
                          OFFSET 4.86325 0 0
                          CHANNELS 6 Xposition Yposition Zposition Zrotation Xrotation Yrotation
                          JOINT LeftHandMiddle3
                          {
                            OFFSET 2.76524 0 0
                            CHANNELS 6 Xposition Yposition Zposition Zrotation Xrotation Yrotation
                            JOINT LeftHandMiddle4
                            {
                              OFFSET 2.00563 0 0
                              CHANNELS 6 Xposition Yposition Zposition Zrotation Xrotation Yrotation
                              End Site
                              {
                                OFFSET 0 0 0
                              }
                            }
                          }
                        }
                      }
                      JOINT LeftHandRing1
                      {
                        OFFSET 8.89376 0.37992 -0.793159
                        CHANNELS 6 Xposition Yposition Zposition Zrotation Xrotation Yrotation
                        JOINT LeftHandRing2
                        {
                          OFFSET 4.53776 0 -0.000282138
                          CHANNELS 6 Xposition Yposition Zposition Zrotation Xrotation Yrotation
                          JOINT LeftHandRing3
                          {
                            OFFSET 2.30453 0 -0.000143448
                            CHANNELS 6 Xposition Yposition Zposition Zrotation Xrotation Yrotation
                            JOINT LeftHandRing4
                            {
                              OFFSET 1.92335 0 -0.00012044
                              CHANNELS 6 Xposition Yposition Zposition Zrotation Xrotation Yrotation
                              End Site
                              {
                                OFFSET 0 0 0
                              }
                            }
                          }
                        }
                      }
                      JOINT LeftHandPinky1
                      {
                        OFFSET 8.88227 -0.313027 -2.49036
                        CHANNELS 6 Xposition Yposition Zposition Zrotation Xrotation Yrotation
                        JOINT LeftHandPinky2
                        {
                          OFFSET 3.0441 0 0
                          CHANNELS 6 Xposition Yposition Zposition Zrotation Xrotation Yrotation
                          JOINT LeftHandPinky3
                          {
                            OFFSET 1.9745 0 0
                            CHANNELS 6 Xposition Yposition Zposition Zrotation Xrotation Yrotation
                            JOINT LeftHandPinky4
                            {
                              OFFSET 1.66661 0 0
                              CHANNELS 6 Xposition Yposition Zposition Zrotation Xrotation Yrotation
                              End Site
                              {
                                OFFSET 0 0 0
                              }
                            }
                          }
                        }
                      }
                    }
                  }
                }
              }
            }
          }
          JOINT RightShoulder
          {
            OFFSET -7 4.56855 2.0673
            CHANNELS 6 Xposition Yposition Zposition Zrotation Xrotation Yrotation
            JOINT RightArm
            {
              OFFSET -10.7073 0 0
              CHANNELS 6 Xposition Yposition Zposition Zrotation Xrotation Yrotation
              JOINT RightArmRoll
              {
                OFFSET -15.2612 0 0
                CHANNELS 6 Xposition Yposition Zposition Zrotation Xrotation Yrotation
                JOINT RightForeArm
                {
                  OFFSET -12.0444 0 0
                  CHANNELS 6 Xposition Yposition Zposition Zrotation Xrotation Yrotation
                  JOINT RightForeArmRoll
                  {
                    OFFSET -16.3276 0 0
                    CHANNELS 6 Xposition Yposition Zposition Zrotation Xrotation Yrotation
                    JOINT RightHand
                    {
                      OFFSET -10.3694 0 0
                      CHANNELS 6 Xposition Yposition Zposition Zrotation Xrotation Yrotation
                      JOINT RightHandThumb1
                      {
                        OFFSET -4.34838 -0.798501 4.28282
                        CHANNELS 6 Xposition Yposition Zposition Zrotation Xrotation Yrotation
                        JOINT RightHandThumb2
                        {
                          OFFSET -2.51253 -0.536099 0.707679
                          CHANNELS 6 Xposition Yposition Zposition Zrotation Xrotation Yrotation
                          JOINT RightHandThumb3
                          {
                            OFFSET -2.54159 0 0.0888232
                            CHANNELS 6 Xposition Yposition Zposition Zrotation Xrotation Yrotation
                            JOINT RightHandThumb4
                            {
                              OFFSET -2.66512 0 0.0931403
                              CHANNELS 6 Xposition Yposition Zposition Zrotation Xrotation Yrotation
                              End Site
                              {
                                OFFSET 0 0 0
                              }
                            }
                          }
                        }
                      }
                      JOINT RightHandIndex1
                      {
                        OFFSET -8.82167 0.199732 3.47246
                        CHANNELS 6 Xposition Yposition Zposition Zrotation Xrotation Yrotation
                        JOINT RightHandIndex2
                        {
                          OFFSET -4.22532 0 0.0001146
                          CHANNELS 6 Xposition Yposition Zposition Zrotation Xrotation Yrotation
                          JOINT RightHandIndex3
                          {
                            OFFSET -2.65394 0 7.19601e-005
                            CHANNELS 6 Xposition Yposition Zposition Zrotation Xrotation Yrotation
                            JOINT RightHandIndex4
                            {
                              OFFSET -1.95822 0 5.30956e-005
                              CHANNELS 6 Xposition Yposition Zposition Zrotation Xrotation Yrotation
                              End Site
                              {
                                OFFSET 0 0 0
                              }
                            }
                          }
                        }
                      }
                      JOINT RightHandMiddle1
                      {
                        OFFSET -8.80976 0.500893 1.30547
                        CHANNELS 6 Xposition Yposition Zposition Zrotation Xrotation Yrotation
                        JOINT RightHandMiddle2
                        {
                          OFFSET -4.86325 0 0.000131881
                          CHANNELS 6 Xposition Yposition Zposition Zrotation Xrotation Yrotation
                          JOINT RightHandMiddle3
                          {
                            OFFSET -2.76524 0 7.49854e-005
                            CHANNELS 6 Xposition Yposition Zposition Zrotation Xrotation Yrotation
                            JOINT RightHandMiddle4
                            {
                              OFFSET -2.00563 0 5.43888e-005
                              CHANNELS 6 Xposition Yposition Zposition Zrotation Xrotation Yrotation
                              End Site
                              {
                                OFFSET 0 0 0
                              }
                            }
                          }
                        }
                      }
                      JOINT RightHandRing1
                      {
                        OFFSET -8.89383 0.379922 -0.792364
                        CHANNELS 6 Xposition Yposition Zposition Zrotation Xrotation Yrotation
                        JOINT RightHandRing2
                        {
                          OFFSET -4.53776 0 0.000123049
                          CHANNELS 6 Xposition Yposition Zposition Zrotation Xrotation Yrotation
                          JOINT RightHandRing3
                          {
                            OFFSET -2.30453 0 6.24859e-005
                            CHANNELS 6 Xposition Yposition Zposition Zrotation Xrotation Yrotation
                            JOINT RightHandRing4
                            {
                              OFFSET -1.92335 0 5.21537e-005
                              CHANNELS 6 Xposition Yposition Zposition Zrotation Xrotation Yrotation
                              End Site
                              {
                                OFFSET 0 0 0
                              }
                            }
                          }
                        }
                      }
                      JOINT RightHandPinky1
                      {
                        OFFSET -8.8825 -0.313025 -2.48956
                        CHANNELS 6 Xposition Yposition Zposition Zrotation Xrotation Yrotation
                        JOINT RightHandPinky2
                        {
                          OFFSET -3.0478 0 8.26466e-005
                          CHANNELS 6 Xposition Yposition Zposition Zrotation Xrotation Yrotation
                          JOINT RightHandPinky3
                          {
                            OFFSET -1.9769 0 5.36145e-005
                            CHANNELS 6 Xposition Yposition Zposition Zrotation Xrotation Yrotation
                            JOINT RightHandPinky4
                            {
                              OFFSET -1.66864 0 4.5245e-005
                              CHANNELS 6 Xposition Yposition Zposition Zrotation Xrotation Yrotation
                              End Site
                              {
                                OFFSET 0 0 0
                              }
                            }
                          }
                        }
                      }
                    }
                  }
                }
              }
            }
          }
        }
      }
    }
  }
}
MOTION
Frames:	2
Frame Time:	0.0333333
-54.0743 94.5929 -109.84 -2.85239 7.95639 -4.73962 8.91 -6.27 -2.145 13.0997 -24.4758 10.5352 -8.88178e-015 -22.7323 -4.71169e-007 2.90449e-018 -1.42729e-016 2.33158 -1.24345e-014 -22.1464 5.17666e-008 -5.17157e-007 76.9264 -3.98054 -8.88178e-015 -22.0919 1.36431e-008 1.8811e-017 3.62819e-016 -5.93589 -1.42109e-014 -18.609 1.69696e-008 -7.93987 1.28885 0.0894545 5.32907e-015 -6.26232 12.9547 -4.29059e-007 -1.04696e-007 -7.84017e-016 -8.91 -6.27 -2.145 10.8486 -28.2369 6.37547 -2.71633e-006 -22.7323 -4.51374e-007 1.84841e-018 1.1387e-016 -1.85996 -4.24549e-013 -22.1464 1.4554e-008 -5.78629e-007 35.9458 1.94674 9.19562e-007 -22.0919 4.09714e-008 4.4873e-018 -1.77386e-016 2.89818 -3.606e-013 -18.609 -7.98564e-010 -7.08255 -12.3533 -0.772029 -6.4416e-011 -6.26232 12.9547 0.00291259 9.13909e-008 -4.6458e-012 2.32301e-006 7.43174 -2.06162 1.66248 0.924362 0.386491 -1.68772e-005 12.1899 -1.41951 1.83933 1.49533 0.613247 -3.87879e-006 11.8846 -1.0903 1.83963 1.49649 0.60964 1.84329e-005 10.5137 1.04001 1.84004 1.49751 0.606 2.32301e-006 11.5156 1.94702 -0.76139 4.57444 0.7269 -1.26215e-005 11.0733 1.65432 -1.62363 -3.41482 1.19131 7 4.56855 2.0674 -9.65261 0 3.26181 10.7073 -5.08749e-012 -5.32907e-015 -56.9622 9.17109 0.842026 15.2612 3.95062e-012 1.16365e-008 -0 32.7682 0 12.0443 -1.25056e-012 2.87898e-009 2.44317 2.99185 -39.2652 16.3277 2.84217e-012 -1.18649e-008 -0 5.79301 0 10.3694 3.12639e-013 2.29894e-008 -2.97867 -0.00946238 0.363942 4.34876 -0.798502 4.28243 -3.74468 -0.100483 -5.34865 2.51259 -0.536099 0.707454 0.688062 0.0240271 1.99986 2.54314 9.9476e-013 9.34198e-006 1.69587 0 0 2.66675 -1.27898e-012 -8.21025e-006 -0 0 0 8.82198 0.199729 3.47167 -15.9672 -0.55038 0.473945 4.22532 4.83737e-011 -0.000262656 -15.9778 0 0 2.65394 2.98712e-011 -0.00016516 -15.9793 0 0 1.95822 2.2311e-011 -0.00012217 -0 0 0 8.80988 0.50089 1.30468 -27.9887 -0.938892 2.15606 4.86325 1.10845e-012 6.11217e-012 -28.0057 0 0 2.76524 3.69482e-013 -1.91784e-007 -28.003 0 0 2.00563 -8.52651e-013 -1.13863e-006 -0 0 0 8.89376 0.37992 -0.793159 -39.9859 -1.28551 1.73017 4.53776 8.2423e-013 -0.000282138 -40.002 0 0 2.30453 0 -0.000143448 -40.0006 0 0 1.92335 -4.26326e-013 -0.00012044 -0 0 0 8.88227 -0.313027 -2.49036 -47.9657 -1.48576 1.15903 3.0441 -2.04636e-012 1.33227e-015 -47.9704 0 0 1.9745 2.84217e-013 -1.43329e-007 -47.9933 0 0 1.66661 1.64846e-012 7.91347e-007 -0 0 0 -7 4.56855 2.0673 10.5374 -8.70623e-016 -6.52859 -10.7073 5.20117e-012 2.04281e-014 55.6141 15.6773 17.5498 -15.2612 -6.33804e-012 1.86659e-008 3.42363e-015 35.7683 3.42363e-015 -12.0444 -8.46967e-012 -7.98782e-009 -1.83498 7.25085 14.2428 -16.3276 -1.11982e-011 -2.36264e-008 -6.92676e-006 11.2157 -2.76152e-006 -10.3694 -8.52651e-014 1.64166e-008 24.3693 0.452729 2.09651 -4.34838 -0.798501 4.28282 3.74491 -0.100338 5.34924 -2.51253 -0.536099 0.707679 -0.685636 0.0239424 -1.99986 -2.54159 2.76827e-011 0.0888232 -1.60632 0 -0 -2.66512 1.86731e-011 0.0931403 0 0 -0 -8.82167 0.199732 3.47246 15.9669 -0.550369 -0.47389 -4.22532 2.47269e-012 0.0001146 15.9778 0 -0 -2.65394 1.39266e-012 7.19601e-005 15.9793 0 -0 -1.95822 1.36424e-012 5.30956e-005 0 0 -0 -8.80976 0.500893 1.30547 27.9567 -0.937906 -0.160277 -4.86325 -1.3074e-012 0.000131881 27.9586 0 -0 -2.76524 1.76215e-012 7.49854e-005 27.9429 0 -0 -2.00563 0 5.43888e-005 0 0 -0 -8.89383 0.379922 -0.792364 39.9542 -1.28466 0.26552 -4.53776 4.09273e-012 0.000123049 39.9415 0 -0 -2.30453 4.12115e-012 6.24859e-005 39.9253 0 -0 -1.92335 7.38964e-013 5.21537e-005 0 0 -0 -8.8825 -0.313025 -2.48956 47.914 -1.48455 0.839267 -3.0478 -6.65921e-011 8.26466e-005 47.8656 0 -0 -1.9769 -3.85683e-011 5.36145e-005 47.8954 0 -0 -1.66864 -3.54419e-011 4.5245e-005 0 0 -0 
-54.6327 95.1657 -106.831 -2.76416 7.64035 -4.90684 8.91 -6.27 -2.145 14.2907 -29.1988 11.7671 -8.88178e-015 -22.7323 -4.71169e-007 3.18043e-018 -1.49352e-016 2.43984 -1.24345e-014 -22.1464 5.17666e-008 -6.841e-007 75.2763 -4.15057 -8.88178e-015 -22.0919 1.36431e-008 2.04479e-017 3.78231e-016 -6.18902 -1.42109e-014 -18.609 1.69696e-008 -6.06819 -0.81638 -0.0432685 5.32907e-015 -6.26232 12.9547 -4.29059e-007 -1.04696e-007 -7.84016e-016 -8.91 -6.27 -2.145 10.7616 -24.8309 6.18667 -2.71633e-006 -22.7323 -4.51374e-007 1.67741e-018 1.08476e-016 -1.77183 -4.24549e-013 -22.1464 1.4554e-008 -4.15493e-007 34.0005 1.95106 9.19562e-007 -22.0919 4.09714e-008 4.50634e-018 -1.77762e-016 2.90432 -3.606e-013 -18.609 -7.98564e-010 -7.49671 -13.4404 -0.889173 -6.4416e-011 -6.26232 12.9547 0.00291259 9.13909e-008 -4.6458e-012 2.32301e-006 7.43174 -2.06162 1.47436 0.884223 0.671525 -1.68772e-005 12.1899 -1.41951 1.45467 1.44167 1.06276 -3.87879e-006 11.8846 -1.0903 1.45491 1.44388 1.05945 1.84329e-005 10.5137 1.04001 1.45529 1.44598 1.05607 2.32301e-006 11.5156 1.94702 -2.07711 5.16897 0.929208 -1.26215e-005 11.0733 1.65432 -1.29442 -2.90455 0.860864 7 4.56855 2.0674 -9.92607 0 3.72278 10.7073 -5.08749e-012 -5.32907e-015 -57.2679 8.43407 2.41543 15.2612 3.95062e-012 1.16365e-008 -0 32.1346 0 12.0443 -1.25056e-012 2.87898e-009 2.36532 2.74485 -40.7795 16.3277 2.84217e-012 -1.18649e-008 -0 5.43397 0 10.3694 3.12639e-013 2.29894e-008 -1.61743 -0.0146314 1.03651 4.34876 -0.798502 4.28243 -3.74468 -0.100483 -5.34865 2.51259 -0.536099 0.707454 0.688062 0.0240271 1.99986 2.54314 9.9476e-013 9.34198e-006 1.69587 0 0 2.66675 -1.27898e-012 -8.21025e-006 -0 0 0 8.82198 0.199729 3.47167 -15.9672 -0.55038 0.473945 4.22532 4.83737e-011 -0.000262656 -15.9778 0 0 2.65394 2.98712e-011 -0.00016516 -15.9793 0 0 1.95822 2.2311e-011 -0.00012217 -0 0 0 8.80988 0.50089 1.30468 -27.9887 -0.938892 2.15606 4.86325 1.10845e-012 6.11217e-012 -28.0057 0 0 2.76524 3.69482e-013 -1.91784e-007 -28.003 0 0 2.00563 -8.52651e-013 -1.13863e-006 -0 0 0 8.89376 0.37992 -0.793159 -39.9859 -1.28551 1.73017 4.53776 8.2423e-013 -0.000282138 -40.002 0 0 2.30453 0 -0.000143448 -40.0006 0 0 1.92335 -4.26326e-013 -0.00012044 -0 0 0 8.88227 -0.313027 -2.49036 -47.9657 -1.48576 1.15903 3.0441 -2.04636e-012 1.33227e-015 -47.9704 0 0 1.9745 2.84217e-013 -1.43329e-007 -47.9933 0 0 1.66661 1.64846e-012 7.91347e-007 -0 0 0 -7 4.56855 2.0673 9.99406 -7.81305e-016 -5.81525 -10.7073 5.20117e-012 2.04281e-014 54.6992 16.7841 22.2112 -15.2612 -6.33804e-012 1.86659e-008 3.45074e-015 36.1197 3.45074e-015 -12.0444 -8.46967e-012 -7.98782e-009 -2.06765 6.88488 16.7608 -16.3276 -1.11982e-011 -2.36264e-008 -6.94819e-006 10.7789 -2.75743e-006 -10.3694 -8.52651e-014 1.64166e-008 23.107 0.407415 1.99285 -4.34838 -0.798501 4.28282 3.74491 -0.100338 5.34924 -2.51253 -0.536099 0.707679 -0.685636 0.0239424 -1.99986 -2.54159 2.76827e-011 0.0888232 -1.60632 0 -0 -2.66512 1.86731e-011 0.0931403 0 0 -0 -8.82167 0.199732 3.47246 15.9669 -0.550369 -0.47389 -4.22532 2.47269e-012 0.0001146 15.9778 0 -0 -2.65394 1.39266e-012 7.19601e-005 15.9793 0 -0 -1.95822 1.36424e-012 5.30956e-005 0 0 -0 -8.80976 0.500893 1.30547 27.9567 -0.937906 -0.160277 -4.86325 -1.3074e-012 0.000131881 27.9586 0 -0 -2.76524 1.76215e-012 7.49854e-005 27.9429 0 -0 -2.00563 0 5.43888e-005 0 0 -0 -8.89383 0.379922 -0.792364 39.9542 -1.28466 0.26552 -4.53776 4.09273e-012 0.000123049 39.9415 0 -0 -2.30453 4.12115e-012 6.24859e-005 39.9253 0 -0 -1.92335 7.38964e-013 5.21537e-005 0 0 -0 -8.8825 -0.313025 -2.48956 47.914 -1.48455 0.839267 -3.0478 -6.65921e-011 8.26466e-005 47.8656 0 -0 -1.9769 -3.85683e-011 5.36145e-005 47.8954 0 -0 -1.66864 -3.54419e-011 4.5245e-005 0 0 -0 
